<svg xmlns="http://www.w3.org/2000/svg" xmlns:svg="http://www.w3.org/2000/svg" xmlns:xlink="http://www.w3.org/1999/xlink" id="svg962" width="520" height="100" version="1.1" viewBox="0 0 137.583 26.458"><defs id="defs956"><linearGradient id="linearGradient1679" x1="-643.785" x2="-628.511" y1="803.315" y2="819.47" gradientTransform="matrix(0.3434293,0,0,0.34392869,231.66636,-262.87554)" gradientUnits="userSpaceOnUse" xlink:href="#linearGradient1693"/><linearGradient id="linearGradient1693"><stop id="stop1685" offset="0" stop-color="#d93a2c" stop-opacity="1"/><stop id="stop1687" offset=".383" stop-color="#d93a2c" stop-opacity="1"/><stop id="stop1689" offset=".447" stop-color="#232323" stop-opacity="1"/><stop id="stop1691" offset="1" stop-color="#d93a2c" stop-opacity="1"/></linearGradient></defs><metadata id="metadata959"/><g id="g860" stroke-width="1.026" transform="matrix(0.9668242,0,0,0.98337538,-2.0821965,0.0102955)"><path id="red" fill="url(#linearGradient1679)" stroke-width="1.026" d="m 7.4224536,5.371381 c 0,0 -4.7214836,0 -4.7214836,0 0,4.1677318 2.0199158,7.054467 4.5732447,9.3909 0,0 6.9001153,5.473305 6.9001153,5.473305 2.006313,1.755404 3.490516,3.66996 3.490516,6.211937 0,0 4.59336,0 4.59336,0 -0.01,-4.005391 -1.973075,-6.723848 -4.484574,-8.978311 0,0 0,6.87e-4 0,6.87e-4 0,0 -6.911516,-5.498831 -6.911516,-5.498831 C 8.8705655,10.162334 7.4224536,8.139543 7.4224536,5.3719311 c 0,0 0,-5.501e-4 0,-5.501e-4"/><path id="green" fill="#4fb850" stroke-width="1.026" d="m 2.70097,26.447523 c 0,-3.852327 1.4325229,-6.459698 4.2540145,-8.695159 0,0 7.0480035,-5.584115 7.0480035,-5.584115 2.197883,-1.741377 3.660633,-3.9187206 3.661858,-6.7901423 0,0 -2.793701,-0.00625 -2.793701,-0.00625 0,0 5.10567,-5.37402029 5.10567,-5.37402029 0,0 5.139861,5.37402029 5.139861,5.37402029 0,0 -2.851144,0 -2.851144,0 -0.0038,4.4183679 -2.145066,7.4781313 -4.979296,9.7774363 0,0 -7.4131507,6.014006 -7.4131507,6.014006 -1.6461557,1.335488 -2.4503316,3.179513 -2.4503316,5.284937 0,0.02825 -4.7107827,-0.01 -4.7217837,-2.26e-4 0,0 0,-4.87e-4 0,-4.87e-4"/></g><flowRoot id="flowRoot822" fill="#000" fill-opacity="1" stroke="none" stroke-linecap="butt" stroke-linejoin="miter" stroke-opacity="1" stroke-width="1.111" font-family="sans-serif" font-size="13.333" font-stretch="normal" font-style="normal" font-variant="normal" font-weight="normal" letter-spacing="0" text-anchor="end" transform="matrix(0.23937701,0,0,0.23699423,1.9247512,5.0175402)" word-spacing="0" writing-mode="lr-tb" xml:space="preserve" style="line-height:125%;-inkscape-font-specification:'sans-serif, Normal';font-variant-ligatures:normal;font-variant-caps:normal;font-variant-numeric:normal;font-feature-settings:normal;text-align:end"><flowRegion id="flowRegion824" stroke-width="1.111"><rect id="rect826" width="420.5" height="100.25" x="99.75" y=".25" stroke-width="1.111"/></flowRegion><flowPara style="line-height:100%;-inkscape-font-specification:'Josefin Sans';text-align:start" id="flowPara830" stroke-width="1.08" font-family="Josefin Sans" font-size="50.667" font-stretch="normal" font-style="normal" font-variant="normal" font-weight="bold" text-anchor="start">GIT</flowPara><flowPara id="flowPara846" stroke-width="1.08" font-family="Josefin Sans" font-size="50.667" font-stretch="normal" font-style="normal" font-variant="normal" font-weight="bold" text-anchor="start" style="line-height:100%;-inkscape-font-specification:'Josefin Sans';text-align:start">EXTENSIONS</flowPara></flowRoot><flowRoot id="flowRoot842" fill="#000" fill-opacity="1" stroke="none" stroke-linecap="butt" stroke-linejoin="miter" stroke-opacity="1" stroke-width="1.085" font-family="sans-serif" font-size="13.333" font-stretch="normal" font-style="normal" font-variant="normal" font-weight="normal" letter-spacing="0" text-anchor="end" transform="matrix(0.24379905,0,0,0.24379905,1.2550306,41.948862)" word-spacing="0" writing-mode="lr-tb" xml:space="preserve" style="line-height:125%;-inkscape-font-specification:'sans-serif, Normal';font-variant-ligatures:normal;font-variant-caps:normal;font-variant-numeric:normal;font-feature-settings:normal;text-align:end"><flowRegion id="flowRegion836" stroke-width="1.085"><rect id="rect834" width="420.5" height="100.25" x="99.75" y=".25" stroke-width="1.085"/></flowRegion><flowPara id="flowPara838" stroke-width="1.055" font-family="Josefin Sans" font-size="50.667" font-stretch="normal" font-style="normal" font-variant="normal" font-weight="normal" text-anchor="start" style="line-height:100%;-inkscape-font-specification:'Josefin Sans';text-align:start">Git</flowPara><flowPara id="flowPara840" stroke-width="1.055" font-family="Josefin Sans" font-size="50.667" font-stretch="normal" font-style="normal" font-variant="normal" font-weight="normal" text-anchor="start" style="line-height:100%;-inkscape-font-specification:'Josefin Sans';text-align:start">Extensions</flowPara></flowRoot><flowRoot id="flowRoot856" fill="#000" fill-opacity="1" stroke="none" stroke-linecap="butt" stroke-linejoin="miter" stroke-opacity="1" stroke-width="1.085" font-family="sans-serif" font-size="13.333" font-stretch="normal" font-style="normal" font-variant="normal" font-weight="normal" letter-spacing="0" text-anchor="end" transform="matrix(0.24379905,0,0,0.24379905,1.2550306,73.01201)" word-spacing="0" writing-mode="lr-tb" xml:space="preserve" style="line-height:125%;-inkscape-font-specification:'sans-serif, Normal';font-variant-ligatures:normal;font-variant-caps:normal;font-variant-numeric:normal;font-feature-settings:normal;text-align:end"><flowRegion id="flowRegion850" stroke-width="1.085"><rect id="rect848" width="420.5" height="100.25" x="99.75" y=".25" stroke-width="1.085"/></flowRegion><flowPara id="flowPara852" stroke-width="1.055" font-family="Josefin Sans" font-size="50.667" font-stretch="normal" font-style="normal" font-variant="normal" font-weight="normal" text-anchor="start" style="line-height:100%;-inkscape-font-specification:'Josefin Sans';text-align:start">GIT</flowPara><flowPara style="line-height:100%;-inkscape-font-specification:'Josefin Sans';text-align:start" id="flowPara854" stroke-width="1.055" font-family="Josefin Sans" font-size="50.667" font-stretch="normal" font-style="normal" font-variant="normal" font-weight="normal" text-anchor="start">EXTENSIONS</flowPara></flowRoot></svg>